<svg width="32" height="33" viewBox="0 0 32 33" fill="none" xmlns="http://www.w3.org/2000/svg">
<rect y="0.5" width="32" height="32" rx="16" fill="#E8E8E8"/>
<path fill-rule="evenodd" clip-rule="evenodd" d="M21 21.5C20.7559 21.744 20.3602 21.744 20.1161 21.5L11.0002 12.3839C10.7561 12.1399 10.7561 11.7441 11.0002 11.5C11.2443 11.256 11.64 11.256 11.8841 11.5L21 20.6161C21.2441 20.8602 21.2441 21.2559 21 21.5Z" fill="#666666"/>
<path fill-rule="evenodd" clip-rule="evenodd" d="M11 21.5C10.7559 21.2559 10.7559 20.8602 11 20.6161L20.1163 11.5C20.3604 11.2559 20.7561 11.2559 21.0002 11.5C21.2443 11.7441 21.2443 12.1398 21.0002 12.3839L11.8839 21.5C11.6398 21.7441 11.2441 21.7441 11 21.5Z" fill="#666666"/>
</svg>
