<svg width="177" height="72" viewBox="0 0 177 72" fill="none" xmlns="http://www.w3.org/2000/svg">
<path d="M18.6766 30.75C17.2001 30.75 15.9384 30.6963 14.8915 30.5889C13.8535 30.4726 13.0258 30.2936 12.4083 30.052C11.7909 29.8015 11.4061 29.4749 11.254 29.0722C11.2719 28.8216 11.3077 28.5666 11.3614 28.3071C11.424 28.0387 11.5046 27.7836 11.603 27.542C11.7104 27.2825 11.8312 27.0678 11.9654 26.8978C12.1086 26.7278 12.2562 26.6204 12.4083 26.5756C12.5336 26.5935 12.6723 26.6159 12.8244 26.6427C12.9855 26.6606 13.1555 26.683 13.3345 26.7099C14.0146 26.8172 14.7886 26.9067 15.6566 26.9783C16.5335 27.0409 17.6744 27.0723 19.0793 27.0723H20.8108V30.75H18.6766ZM9.9252 38.28C8.21608 38.28 6.75752 38.007 5.5495 37.4612C4.34148 36.9243 3.41981 36.1324 2.78448 35.0854C2.14916 34.0474 1.83149 32.7768 1.83149 31.2735C1.83149 30.3608 1.94335 29.3585 2.16705 28.2669C2.39076 27.1752 2.71737 26.0611 3.14689 24.9247C3.23637 24.7905 3.3348 24.692 3.44218 24.6294C3.54956 24.5578 3.66142 24.5131 3.77774 24.4952C3.95671 24.4773 4.12673 24.4773 4.28779 24.4952C4.43991 24.5041 4.60546 24.5444 4.78442 24.616C4.96339 24.6786 5.13341 24.7636 5.29447 24.871C5.47344 24.9873 5.62109 25.1126 5.73741 25.2468C5.85374 25.381 5.92085 25.5197 5.93875 25.6629C5.88506 25.8866 5.80453 26.1506 5.69715 26.4548C5.58977 26.7591 5.46897 27.0902 5.33474 27.4481C5.08419 28.1461 4.87838 28.759 4.71731 29.287C4.56519 29.806 4.48018 30.2623 4.46229 30.656C4.48018 31.4524 4.69941 32.1459 5.11998 32.7365C5.54055 33.3271 6.16693 33.7835 6.99912 34.1056C7.84026 34.4367 8.87826 34.6022 10.1131 34.6022C11.8759 34.6022 13.2674 34.383 14.2875 33.9445C15.3076 33.515 16.0235 32.9423 16.4351 32.2265C16.8556 31.5196 17.0659 30.7053 17.0659 29.7836H19.6564C19.6564 31.5643 19.2851 33.09 18.5424 34.3606C17.8086 35.6313 16.7169 36.6022 15.2673 37.2733C13.8177 37.9444 12.037 38.28 9.9252 38.28ZM27.3357 8.18694C27.4967 8.18694 27.6131 8.27195 27.6847 8.44196C27.7652 8.61198 27.8099 8.83121 27.8189 9.09966C27.8189 9.20704 27.8055 9.30994 27.7786 9.40838C27.7607 9.49786 27.7294 9.58287 27.6847 9.6634C27.6489 9.73499 27.6086 9.79763 27.5639 9.85131C27.5191 9.89606 27.4699 9.9408 27.4162 9.98554C25.9576 10.594 24.5707 11.2517 23.2553 11.9586C22.8884 12.1555 22.5528 12.3345 22.2486 12.4955C21.9533 12.6566 21.6669 12.8132 21.3895 12.9653C21.2553 12.9743 21.1524 12.9071 21.0808 12.764C21.0092 12.6119 20.9779 12.4239 20.9869 12.2002C20.9869 12.1108 20.9914 12.0257 21.0003 11.9452C21.0182 11.8647 21.0406 11.7886 21.0674 11.717C21.1032 11.6007 21.1524 11.4933 21.2151 11.3949C21.2777 11.2965 21.3538 11.2115 21.4432 11.1399C22.2933 10.6209 23.2642 10.0884 24.3559 9.5426C25.4476 8.99676 26.4408 8.54487 27.3357 8.18694ZM30.3691 26.0387C30.3691 26.5667 30.3333 27.0186 30.2618 27.3944C30.1991 27.7613 30.0917 28.0879 29.9396 28.3742C29.7964 28.6516 29.613 28.8932 29.3893 29.099C28.8256 29.6091 27.801 30.0118 26.3156 30.3071C24.8391 30.6024 23.0047 30.75 20.8124 30.75H19.1749C19.0317 30.75 18.9243 30.7008 18.8527 30.6024C18.7722 30.5039 18.714 30.325 18.6782 30.0655C18.6424 29.806 18.6245 29.4301 18.6245 28.938C18.6245 28.41 18.6424 28.0163 18.6782 27.7568C18.714 27.4973 18.7722 27.3183 18.8527 27.2199C18.9243 27.1215 19.0317 27.0723 19.1749 27.0723H21.0808C22.6378 27.0723 23.989 27.0096 25.1344 26.8843C26.2798 26.7591 27.1254 26.5533 27.6712 26.2669L27.4028 26.683V25.7971C27.4028 25.0097 27.188 24.2893 26.7585 23.6361C26.329 22.9829 25.6623 22.3431 24.7586 21.7167C23.8637 21.0814 22.6199 20.3521 21.0271 19.5289C20.875 19.4215 20.7542 19.3007 20.6647 19.1665C20.5753 19.0233 20.5037 18.8667 20.45 18.6967C20.4231 18.5804 20.4008 18.464 20.3829 18.3477C20.365 18.2224 20.3605 18.0971 20.3694 17.9719C20.3694 17.6945 20.3873 17.4394 20.4231 17.2068C20.4589 16.9652 20.5081 16.7325 20.5708 16.5088C20.6424 16.2851 20.7319 16.0793 20.8392 15.8914C20.9466 15.7035 21.0808 15.5379 21.2419 15.3948C21.7877 14.9831 22.6513 14.4597 23.8324 13.8243C25.0225 13.189 26.2664 12.5805 27.5639 11.9989C28.8614 11.4083 30.0112 10.9385 31.0134 10.5895C31.2729 10.6611 31.4653 10.8669 31.5906 11.207C31.7248 11.5381 31.7964 11.9542 31.8053 12.4553C31.8053 12.6342 31.7874 12.8042 31.7516 12.9653C31.7248 13.1264 31.6711 13.274 31.5906 13.4083C31.5369 13.5067 31.4608 13.6006 31.3624 13.6901C31.2729 13.7796 31.1655 13.8601 31.0403 13.9317C30.7987 14.0302 30.5526 14.1331 30.302 14.2404C30.0515 14.3389 29.8009 14.4373 29.5504 14.5357C28.3871 15.0279 27.273 15.5156 26.2082 15.9988C25.1433 16.473 24.2127 16.9115 23.4163 17.3142C25.2955 18.2716 26.7361 19.1888 27.7383 20.0658C28.7406 20.9427 29.4296 21.8465 29.8054 22.7771C30.1812 23.6988 30.3691 24.786 30.3691 26.0387ZM38.0618 29.6896C38.0618 31.533 37.771 33.1123 37.1893 34.4277C36.6077 35.7431 35.8292 36.7364 34.8538 37.4075C33.8785 38.0876 32.8047 38.4276 31.6325 38.4276C31.0687 38.4276 30.5273 38.3739 30.0083 38.2665C29.4893 38.1681 29.0464 38.016 28.6795 37.8102C28.3126 37.6044 28.0576 37.3538 27.9144 37.0585C27.9413 36.629 28.0218 36.2308 28.1561 35.8639C28.2366 35.6223 28.335 35.4165 28.4513 35.2465C28.5677 35.0854 28.6974 34.9825 28.8406 34.9378C28.939 34.9378 29.0464 34.9423 29.1627 34.9512C29.288 34.9602 29.4178 34.9691 29.552 34.9781C30.2589 35.0228 30.8495 35.0452 31.3237 35.0452C32.138 35.0452 32.8539 34.8125 33.4713 34.3472C34.0888 33.8908 34.5585 33.2779 34.8807 32.5083C35.2118 31.7388 35.3773 30.9111 35.3773 30.0252C35.2878 29.4346 35.167 28.7501 35.0149 27.9716C34.8628 27.1841 34.7151 26.4235 34.572 25.6898C34.1693 23.7211 33.968 22.625 33.968 22.4013C33.9948 22.2223 34.0888 22.0568 34.2498 21.9046C34.4109 21.7525 34.6078 21.6228 34.8404 21.5154C35.0462 21.417 35.2476 21.3409 35.4444 21.2872C35.6502 21.2246 35.8247 21.1888 35.9679 21.1798C36.1469 21.1619 36.3035 21.1664 36.4377 21.1932C36.5808 21.2111 36.7061 21.2514 36.8135 21.314C36.894 21.3588 36.9612 21.4214 37.0148 21.502C37.0775 21.5735 37.1267 21.6586 37.1625 21.757C37.2072 22.0165 37.2475 22.2894 37.2833 22.5758C37.328 22.8532 37.3772 23.1484 37.4309 23.4616C37.6099 24.7591 37.7575 25.9671 37.8739 27.0857C37.9992 28.2042 38.0618 29.0722 38.0618 29.6896ZM37.1491 15.5424C37.1222 15.8288 37.0283 16.1375 36.8672 16.4686C36.7151 16.7996 36.5316 17.0905 36.3169 17.341C36.2184 17.4394 36.1245 17.5245 36.035 17.596C35.9545 17.6587 35.8695 17.7034 35.78 17.7303C35.4936 17.6945 35.1357 17.5916 34.7062 17.4216C34.2856 17.2515 33.9008 17.0502 33.5519 16.8175C33.3639 16.6923 33.2029 16.567 33.0687 16.4417C32.9434 16.3075 32.8628 16.1777 32.8271 16.0525C32.8539 15.793 32.9434 15.5021 33.0955 15.18C33.2476 14.8579 33.4266 14.576 33.6324 14.3344C33.8472 14.0838 34.0574 13.9317 34.2632 13.878C34.5406 13.9049 34.8941 14.0123 35.3236 14.2002C35.7531 14.3791 36.1424 14.5939 36.4914 14.8444C36.8493 15.0861 37.0685 15.3187 37.1491 15.5424ZM45.996 30.75C44.9044 30.75 43.9693 30.5934 43.1908 30.2802C42.4212 29.9581 41.8038 29.4212 41.3385 28.6695C40.8732 27.9089 40.6092 26.8888 40.5465 25.6092C40.4481 23.8375 40.3542 21.8375 40.2647 19.6094C40.1752 17.3813 40.0991 15.4127 40.0365 13.7035C40.0186 13.2293 40.0007 12.8311 39.9828 12.509C39.9739 12.1868 39.9694 11.9542 39.9694 11.811C39.9962 11.6589 40.0589 11.5246 40.1573 11.4083C40.2647 11.292 40.4034 11.1846 40.5734 11.0862C40.7792 10.9788 41.0119 10.8983 41.2714 10.8446C41.5309 10.7819 41.7859 10.7461 42.0364 10.7372C42.2064 10.7282 42.363 10.7372 42.5062 10.764C42.6494 10.7909 42.7747 10.8312 42.882 10.8848C42.9715 10.9475 43.0431 11.0235 43.0968 11.113C43.1594 11.1936 43.1997 11.2875 43.2176 11.3949V24.0791C43.2176 24.8665 43.325 25.4795 43.5397 25.9179C43.7545 26.3475 44.0722 26.6472 44.4927 26.8172C44.9133 26.9873 45.4591 27.0723 46.1303 27.0723H46.2779V30.75H45.996ZM52.6417 25.5824C52.6417 26.2445 52.5881 26.8128 52.4807 27.287C52.3822 27.7523 52.2077 28.1729 51.9572 28.5487C51.7066 28.9156 51.3577 29.2512 50.9103 29.5554C50.3286 29.9581 49.5277 30.2578 48.5076 30.4547C47.4965 30.6516 46.2079 30.75 44.642 30.75C44.4988 30.75 44.3914 30.7053 44.3198 30.6158C44.2393 30.5173 44.1812 30.3429 44.1454 30.0923C44.1096 29.8328 44.0917 29.4391 44.0917 28.9111C44.0917 28.3832 44.1096 27.9895 44.1454 27.73C44.1812 27.4705 44.2393 27.296 44.3198 27.2065C44.3914 27.117 44.4988 27.0723 44.642 27.0723C46.0558 27.0723 47.2191 27.0096 48.1318 26.8843C49.0445 26.7591 49.7157 26.5667 50.1452 26.3072L50.0109 26.7501C49.9125 26.0969 49.8007 25.4079 49.6754 24.6831C49.5501 23.9583 49.4293 23.2648 49.313 22.6026C49.0803 21.2872 48.964 20.5624 48.964 20.4282C48.9998 20.2134 49.1251 20.0255 49.3398 19.8644C49.5635 19.7034 49.8141 19.5736 50.0915 19.4752C50.3778 19.3767 50.6373 19.3231 50.87 19.3141C51.0132 19.3052 51.1429 19.3141 51.2592 19.341C51.3845 19.3589 51.4919 19.3902 51.5814 19.4349C51.6887 19.4886 51.7827 19.5602 51.8632 19.6497C51.9438 19.7392 52.0109 19.851 52.0646 19.9852C52.163 20.5579 52.2838 21.5109 52.427 22.8442C52.5702 24.1775 52.6417 25.0902 52.6417 25.5824ZM48.615 14.6163C48.4361 15.0189 48.266 15.3634 48.105 15.6498C47.9528 15.9272 47.7963 16.1643 47.6352 16.3612C47.5457 16.4686 47.4517 16.558 47.3533 16.6296C47.2638 16.6923 47.1699 16.7325 47.0714 16.7504C46.7761 16.7146 46.3914 16.5849 45.9171 16.3612C45.4518 16.1375 45.067 15.8959 44.7628 15.6364C44.5391 15.4485 44.4138 15.2829 44.387 15.1397C44.4049 14.9697 44.4541 14.7863 44.5346 14.5894C44.6062 14.3926 44.7046 14.1957 44.8299 13.9988C44.9731 13.7483 45.1252 13.538 45.2863 13.368C45.4563 13.198 45.6173 13.0951 45.7695 13.0593C45.9753 13.0951 46.2706 13.2024 46.6553 13.3814C47.0491 13.5514 47.4294 13.7528 47.7963 13.9854C48.1631 14.2091 48.4361 14.4194 48.615 14.6163ZM53.0176 14.6565C52.9997 14.8266 52.9505 15.0145 52.8699 15.2203C52.7983 15.4261 52.6999 15.6274 52.5746 15.8243C52.4404 16.0659 52.2928 16.2717 52.1317 16.4417C51.9796 16.6117 51.8364 16.7146 51.7022 16.7504C51.4606 16.7146 51.1026 16.5894 50.6284 16.3746C50.1631 16.1509 49.7336 15.9093 49.3398 15.6498C49.2146 15.5603 49.1027 15.4798 49.0043 15.4082C48.9148 15.3277 48.8432 15.2516 48.7895 15.18C48.9416 14.84 49.0848 14.5447 49.219 14.2941C49.3533 14.0436 49.4875 13.8243 49.6217 13.6364C49.747 13.4754 49.8723 13.3456 49.9975 13.2472C50.1228 13.1488 50.2526 13.0861 50.3868 13.0593C50.6194 13.0861 50.9326 13.189 51.3263 13.368C51.7201 13.547 52.078 13.7572 52.4001 13.9988C52.7312 14.2315 52.937 14.4507 53.0176 14.6565ZM87.2211 30.75C85.9415 30.75 84.9348 30.571 84.201 30.2131C83.4762 29.8462 83.002 29.3541 82.7783 28.7366H83.0601C82.6843 29.3899 82.1698 29.891 81.5166 30.2399C80.8723 30.58 80.1162 30.75 79.2482 30.75C78.6039 30.75 78.0312 30.6516 77.5301 30.4547C77.0379 30.2578 76.6353 29.9939 76.3221 29.6628C76.0178 29.3317 75.8076 28.9603 75.6912 28.5487L75.9463 28.589C75.7583 29.0185 75.472 29.3943 75.0872 29.7165C74.7114 30.0386 74.255 30.2936 73.7181 30.4816C73.1812 30.6605 72.5951 30.75 71.9598 30.75C71.1903 30.75 70.5281 30.6292 69.9733 30.3876C69.4274 30.137 69.0113 29.8015 68.725 29.3809L69.423 28.8977C69.4409 28.9693 69.4543 29.0811 69.4632 29.2333C69.4811 29.3764 69.4901 29.4972 69.4901 29.5957C69.4901 31.3853 69.1187 32.9334 68.376 34.2398C67.6333 35.5463 66.5819 36.544 65.2218 37.233C63.8706 37.931 62.2912 38.28 60.4836 38.28C58.9356 38.28 57.5934 38.0115 56.4569 37.4746C55.3205 36.9377 54.4436 36.1458 53.8261 35.0989C53.2087 34.0519 52.9 32.7768 52.9 31.2735C52.9 30.3608 53.0118 29.3585 53.2355 28.2669C53.4593 27.1752 53.7859 26.0611 54.2154 24.9247C54.3675 24.7278 54.542 24.5981 54.7389 24.5354C54.9357 24.4728 55.1371 24.4594 55.3429 24.4952C55.486 24.5041 55.6382 24.5399 55.7992 24.6025C55.9692 24.6562 56.1348 24.7323 56.2959 24.8307C56.4838 24.947 56.6404 25.0768 56.7656 25.22C56.8999 25.3631 56.9804 25.5108 57.0072 25.6629C56.9536 25.8866 56.873 26.1506 56.7656 26.4548C56.6583 26.7591 56.5375 27.0902 56.4032 27.4481C56.1527 28.1461 55.9469 28.759 55.7858 29.287C55.6337 29.806 55.5487 30.2623 55.5308 30.656C55.5487 31.4435 55.759 32.1325 56.1616 32.7231C56.5643 33.3226 57.1459 33.7835 57.9065 34.1056C58.6761 34.4367 59.6022 34.6022 60.685 34.6022C61.9467 34.6022 63.0339 34.3875 63.9466 33.958C64.8683 33.5284 65.5707 32.92 66.0539 32.1325C66.5372 31.3451 66.7788 30.4189 66.7788 29.3541C66.6803 28.8082 66.5685 28.2221 66.4432 27.5957C66.3179 26.9604 66.1882 26.343 66.0539 25.7434C65.875 24.8934 65.7273 24.1775 65.611 23.5959C65.4947 23.0053 65.4276 22.6071 65.4097 22.4013C65.4365 22.2491 65.5081 22.1104 65.6244 21.9852C65.7408 21.8509 65.8884 21.7346 66.0674 21.6362C66.2732 21.502 66.4969 21.3991 66.7385 21.3275C66.9801 21.2469 67.1859 21.2022 67.3559 21.1932C67.6333 21.1754 67.8883 21.1977 68.121 21.2604C68.2284 21.3051 68.3223 21.3677 68.4029 21.4483C68.4834 21.5199 68.5505 21.6138 68.6042 21.7301L69.0606 24.6025C69.159 25.22 69.329 25.7076 69.5706 26.0656C69.8212 26.4235 70.1478 26.683 70.5505 26.8441C70.9531 26.9962 71.4632 27.0723 72.0806 27.0723C72.528 27.0723 72.9352 27.0275 73.302 26.938C73.6779 26.8486 73.9911 26.7188 74.2416 26.5488C74.5011 26.3788 74.6935 26.1774 74.8188 25.9448L74.7651 26.3475C74.6935 25.9448 74.6309 25.4258 74.5772 24.7905C74.5324 24.1551 74.5101 23.654 74.5101 23.2871C74.528 23.1261 74.5816 22.9874 74.6711 22.871C74.7696 22.7458 74.8948 22.6384 75.047 22.5489C75.1901 22.4684 75.3467 22.4102 75.5167 22.3744C75.6868 22.3297 75.8657 22.3028 76.0536 22.2939C76.2952 22.2849 76.4921 22.3118 76.6442 22.3744C76.8053 22.4371 76.9306 22.531 77.02 22.6563C77.0469 22.71 77.0693 22.7637 77.0872 22.8174C77.1051 22.871 77.123 22.9292 77.1409 22.9918C77.2124 24.1283 77.3153 24.9739 77.4496 25.5287C77.5838 26.0745 77.812 26.4683 78.1341 26.7099C78.4652 26.9515 78.9573 27.0723 79.6106 27.0723C80.1385 27.0723 80.6217 26.9828 81.0602 26.8038C81.5076 26.6248 81.8118 26.3609 81.9729 26.0119L81.8253 26.4817C81.7537 25.8106 81.691 25.0186 81.6374 24.1059C81.5837 23.1842 81.5568 22.3163 81.5568 21.502C81.5837 21.3409 81.6463 21.1977 81.7447 21.0724C81.8432 20.9472 81.9684 20.8398 82.1206 20.7503C82.2727 20.6608 82.4382 20.5937 82.6172 20.549C82.8051 20.5042 82.9975 20.4819 83.1944 20.4819C83.4091 20.4729 83.597 20.4953 83.7581 20.549C83.9281 20.5937 84.0623 20.6698 84.1608 20.7772C84.2055 20.8308 84.2413 20.8845 84.2681 20.9382C84.295 20.9919 84.3174 21.0545 84.3353 21.1261L84.4292 23.9985C84.4561 24.7502 84.5634 25.3497 84.7514 25.7971C84.9482 26.2356 85.2569 26.5577 85.6775 26.7635C86.0981 26.9694 86.6663 27.0723 87.3821 27.0723H87.7311V30.75H87.2211ZM91.8266 18.1598C92.793 18.1598 93.9652 18.3343 95.3432 18.6833C96.7302 19.0322 98.0859 19.4573 99.4102 19.9584C100.735 20.4505 101.773 20.9069 102.524 21.3275C102.82 21.5601 103.021 21.8062 103.128 22.0657C103.236 22.3163 103.28 22.5847 103.262 22.871C103.254 22.9874 103.227 23.135 103.182 23.314C103.137 23.484 103.079 23.663 103.007 23.8509C102.936 24.0388 102.855 24.2133 102.766 24.3744C102.685 24.5354 102.605 24.6741 102.524 24.7905C101.254 26.2669 99.9203 27.4391 98.5244 28.3071C97.1284 29.1662 95.5491 29.7881 93.7862 30.1728C92.0234 30.5576 89.934 30.75 87.518 30.75H86.0818C85.9297 30.75 85.8178 30.7053 85.7462 30.6158C85.6657 30.5263 85.612 30.3563 85.5852 30.1057C85.5494 29.8462 85.5315 29.448 85.5315 28.9111C85.5315 28.3832 85.5494 27.9895 85.5852 27.73C85.612 27.4705 85.6657 27.296 85.7462 27.2065C85.8178 27.117 85.9297 27.0723 86.0818 27.0723H87.6522C89.7729 27.0723 91.5492 26.9649 92.9809 26.7501C94.4126 26.5264 95.6967 26.1372 96.8331 25.5824C97.9785 25.0186 99.106 24.2178 100.216 23.1798L100.296 23.5959C99.4371 23.2111 98.417 22.8397 97.2358 22.4818C96.0546 22.1239 94.86 21.8286 93.652 21.5959C92.444 21.3633 91.3836 21.2335 90.4709 21.2067L91.0749 20.9919L90.3635 24.0388C90.3456 24.0925 90.3143 24.1462 90.2696 24.1999C90.2338 24.2446 90.1935 24.2849 90.1488 24.3207C89.9519 24.437 89.7551 24.4996 89.5582 24.5086C89.3882 24.4996 89.2182 24.4728 89.0481 24.428C88.8871 24.3744 88.7349 24.3028 88.5918 24.2133C88.4576 24.1328 88.3502 24.0388 88.2696 23.9314C88.1891 23.824 88.1399 23.7032 88.122 23.569C88.2294 22.4057 88.4218 21.4214 88.6992 20.6161C88.9766 19.8107 89.3658 19.2023 89.8669 18.7906C90.377 18.3701 91.0302 18.1598 91.8266 18.1598Z" fill="#212121"/>
<path d="M40.9675 61.25C40.6206 61.25 40.3183 61.2055 40.0604 61.1164C39.8073 61.0273 39.6081 60.8937 39.4627 60.7156L39.6245 60.5749C39.6338 60.6218 39.6409 60.6804 39.6456 60.7507C39.6503 60.8164 39.6526 60.8726 39.6526 60.9195C39.6526 61.7774 39.5143 62.5321 39.2377 63.1838C38.9611 63.8354 38.5838 64.3393 38.1056 64.6956C37.6274 65.0519 37.0954 65.23 36.5094 65.23C36.3594 65.23 36.2093 65.216 36.0593 65.1878C35.914 65.1597 35.771 65.1222 35.6304 65.0753C35.4944 65.0331 35.3561 64.9816 35.2155 64.9206C35.2296 64.8503 35.246 64.7612 35.2647 64.6534C35.2882 64.5456 35.3116 64.4354 35.3351 64.3229C35.3538 64.2432 35.3702 64.1706 35.3843 64.1049C35.3983 64.0393 35.4077 63.9854 35.4124 63.9432C35.464 63.9526 35.5202 63.9619 35.5812 63.9713C35.6421 63.9807 35.7077 63.9877 35.7781 63.9924C35.8718 64.0018 35.9703 64.0065 36.0734 64.0065C36.1812 64.0112 36.2937 64.0135 36.4109 64.0135C36.8703 64.0135 37.2735 63.8705 37.6204 63.5846C37.972 63.3033 38.2392 62.9353 38.422 62.4806C38.6095 62.0305 38.7033 61.5617 38.7033 61.0742C38.6658 60.8586 38.6166 60.596 38.5556 60.2866C38.4994 59.9726 38.4384 59.6327 38.3728 59.267C38.1009 57.7763 37.9626 57.0098 37.9579 56.9676C38.0048 56.9489 38.0681 56.9231 38.1478 56.8903C38.2275 56.8575 38.3095 56.8246 38.3939 56.7918C38.4361 56.7731 38.4736 56.759 38.5064 56.7496C38.5439 56.7356 38.572 56.7238 38.5908 56.7145C38.6705 56.6817 38.7549 56.6488 38.8439 56.616C38.9377 56.5785 39.0197 56.5457 39.09 56.5176L39.4346 58.8662C39.4909 59.2506 39.6432 59.5342 39.8917 59.7171C40.1448 59.8952 40.5034 59.9843 40.9675 59.9843V61.25ZM45.2226 61.25C44.6648 61.25 44.2194 61.1539 43.8866 60.9617C43.5538 60.7695 43.3241 60.5304 43.1975 60.2444L43.4014 60.1812C43.2561 60.3781 43.0592 60.5562 42.8107 60.7156C42.5623 60.875 42.2271 61.0039 41.8052 61.1023C41.3833 61.2008 40.8653 61.25 40.2511 61.25H40.1105C40.0355 61.25 39.9792 61.2312 39.9417 61.1937C39.8996 61.1562 39.8691 61.093 39.8503 61.0039C39.8316 60.9148 39.8222 60.7836 39.8222 60.6101C39.8222 60.4367 39.8316 60.3054 39.8503 60.2163C39.8691 60.1273 39.8996 60.0663 39.9417 60.0335C39.9792 60.0007 40.0355 59.9843 40.1105 59.9843H40.3144C40.8395 59.9843 41.2895 59.9491 41.6645 59.8788C42.0396 59.8085 42.3349 59.7124 42.5506 59.5905C42.7662 59.4686 42.9045 59.3327 42.9654 59.1826L42.8881 59.5905C42.8459 59.2248 42.8107 58.7795 42.7826 58.2544C42.7592 57.7247 42.7474 57.1387 42.7474 56.4965C42.7756 56.4918 42.8107 56.4848 42.8529 56.4754C42.8951 56.466 42.9396 56.4543 42.9865 56.4402C43.0381 56.4355 43.085 56.4285 43.1272 56.4191C43.174 56.4098 43.2139 56.4027 43.2467 56.398C43.2748 56.3887 43.31 56.3793 43.3522 56.3699C43.3944 56.3605 43.4366 56.3535 43.4788 56.3488C43.5256 56.3394 43.5678 56.3301 43.6053 56.3207C43.6475 56.3113 43.6827 56.3043 43.7108 56.2996L43.7882 58.4162C43.8022 58.7912 43.8585 59.0936 43.9569 59.3233C44.0554 59.5483 44.2124 59.7147 44.4281 59.8225C44.6484 59.9304 44.9414 59.9843 45.307 59.9843H45.4477V61.25H45.2226ZM42.2833 54.0705C42.2318 54.1689 42.1755 54.2697 42.1146 54.3729C42.0583 54.476 42.0021 54.5791 41.9458 54.6823C41.9083 54.7526 41.8732 54.8159 41.8403 54.8721C41.8122 54.9284 41.7888 54.9706 41.77 54.9987C41.6388 54.9284 41.4653 54.8417 41.2497 54.7385C41.034 54.6354 40.8324 54.5369 40.6449 54.4432C40.4902 54.3682 40.3941 54.3213 40.3566 54.3026C40.3847 54.2557 40.4176 54.1947 40.4551 54.1197C40.4926 54.04 40.5371 53.9556 40.5887 53.8666C40.6449 53.7588 40.6965 53.6603 40.7434 53.5712C40.7949 53.4775 40.8348 53.4048 40.8629 53.3533C40.9942 53.4095 41.1465 53.4751 41.32 53.5501C41.4934 53.6252 41.6645 53.7095 41.8333 53.8033C42.0068 53.8924 42.1568 53.9814 42.2833 54.0705ZM44.5054 54.0494C44.4773 54.0963 44.4445 54.1596 44.407 54.2393C44.3695 54.3143 44.3249 54.3963 44.2733 54.4854C44.2171 54.5932 44.1655 54.694 44.1186 54.7877C44.0718 54.8768 44.0343 54.9471 44.0061 54.9987C43.8796 54.9331 43.7061 54.8463 43.4858 54.7385C43.2655 54.626 43.0592 54.5229 42.867 54.4291C42.8107 54.401 42.7568 54.3752 42.7053 54.3518C42.6584 54.3236 42.6162 54.3002 42.5787 54.2815C42.6256 54.1924 42.6748 54.101 42.7263 54.0072C42.7826 53.9088 42.8365 53.8103 42.8881 53.7119C42.935 53.6275 42.9748 53.5548 43.0076 53.4939C43.0451 53.4329 43.0709 53.3861 43.085 53.3533C43.2209 53.4048 43.3733 53.4681 43.542 53.5431C43.7108 53.6134 43.8796 53.6931 44.0483 53.7822C44.2218 53.8713 44.3741 53.9603 44.5054 54.0494ZM57.4448 61.25C56.8166 61.25 56.3221 61.1633 55.9611 60.9898C55.6001 60.8164 55.361 60.589 55.2438 60.3077H55.3915C55.204 60.6031 54.9391 60.8351 54.5969 61.0039C54.2547 61.168 53.8656 61.25 53.4296 61.25C53.0874 61.25 52.7921 61.2031 52.5436 61.1094C52.2952 61.0109 52.0936 60.882 51.9389 60.7226C51.7889 60.5632 51.6811 60.3851 51.6154 60.1882L51.7068 60.2234C51.6084 60.4202 51.4513 60.5984 51.2357 60.7578C51.0247 60.9125 50.7739 61.0344 50.4833 61.1234C50.1973 61.2078 49.895 61.25 49.5762 61.25C49.2434 61.25 48.9457 61.2055 48.6832 61.1164C48.4253 61.0226 48.2073 60.8843 48.0292 60.7015C47.8511 60.5187 47.7174 60.2937 47.6284 60.0265H47.7831C47.6471 60.2702 47.4362 60.4835 47.1502 60.6664C46.8643 60.8492 46.515 60.9922 46.1025 61.0953C45.6946 61.1984 45.2376 61.25 44.7313 61.25H44.5906C44.5156 61.25 44.4594 61.2312 44.4219 61.1937C44.3797 61.1562 44.3492 61.093 44.3304 61.0039C44.3117 60.9148 44.3023 60.7836 44.3023 60.6101C44.3023 60.4367 44.3117 60.3054 44.3304 60.2163C44.3492 60.1273 44.3797 60.0663 44.4219 60.0335C44.4594 60.0007 44.5156 59.9843 44.5906 59.9843H44.8086C45.2868 59.9843 45.7087 59.9397 46.0743 59.8507C46.4447 59.7616 46.7377 59.6397 46.9533 59.485C47.169 59.3303 47.3049 59.1569 47.3612 58.9647L47.3401 59.3514C47.3026 59.0748 47.2698 58.7209 47.2416 58.2896C47.2182 57.8583 47.2065 57.4739 47.2065 57.1364C47.2299 57.1317 47.2533 57.127 47.2768 57.1223C47.3049 57.1129 47.3354 57.1059 47.3682 57.1012C47.4245 57.0872 47.4784 57.0754 47.5299 57.0661C47.5862 57.0567 47.6448 57.045 47.7057 57.0309C47.7573 57.0215 47.8065 57.0122 47.8534 57.0028C47.905 56.9934 47.9518 56.984 47.994 56.9746C48.0456 56.9653 48.0995 56.9536 48.1558 56.9395C48.1933 57.8302 48.2472 58.4748 48.3175 58.8732C48.3878 59.2717 48.5261 59.5577 48.7324 59.7311C48.9433 59.8999 49.2738 59.9843 49.7239 59.9843C49.977 59.9843 50.2091 59.9561 50.42 59.8999C50.6357 59.8436 50.8208 59.7663 50.9755 59.6678C51.1302 59.5647 51.2451 59.4452 51.3201 59.3092L51.3131 59.5202C51.2662 59.2623 51.2263 58.9107 51.1935 58.4654C51.1607 58.02 51.1443 57.6755 51.1443 57.4317C51.1771 57.427 51.2146 57.42 51.2568 57.4106C51.299 57.4012 51.3459 57.3919 51.3974 57.3825C51.449 57.3731 51.4982 57.3637 51.5451 57.3544C51.5967 57.345 51.6459 57.3333 51.6928 57.3192C51.7537 57.3098 51.81 57.3005 51.8615 57.2911C51.9178 57.2817 51.967 57.27 52.0092 57.2559C52.0233 57.2512 52.035 57.2489 52.0444 57.2489C52.0584 57.2489 52.0725 57.2465 52.0866 57.2419C52.1287 58.0247 52.1803 58.5943 52.2413 58.9506C52.3069 59.3022 52.4358 59.5624 52.628 59.7311C52.8202 59.8999 53.1226 59.9843 53.5351 59.9843C53.868 59.9843 54.1727 59.928 54.4493 59.8155C54.7258 59.703 54.9134 59.5366 55.0118 59.3162L54.9344 59.5905C54.8969 59.2248 54.8641 58.7725 54.836 58.2333C54.8079 57.6896 54.7938 57.1036 54.7938 56.4754C54.8219 56.4707 54.8571 56.4637 54.8993 56.4543C54.9415 56.4449 54.986 56.4379 55.0329 56.4332C55.0798 56.4238 55.122 56.4144 55.1595 56.4051C55.2017 56.3957 55.2392 56.3887 55.272 56.384C55.3189 56.3746 55.3704 56.3652 55.4267 56.3558C55.4829 56.3465 55.5392 56.3348 55.5954 56.3207C55.6283 56.316 55.6564 56.3113 55.6798 56.3066C55.7033 56.3019 55.7267 56.2972 55.7501 56.2926L55.8205 58.4021C55.8345 58.7865 55.8931 59.0912 55.9963 59.3162C56.1041 59.5413 56.2799 59.71 56.5236 59.8225C56.7674 59.9304 57.1026 59.9843 57.5292 59.9843H57.7331V61.25H57.4448ZM51.8897 51.8695C51.8522 51.9399 51.8006 52.0336 51.735 52.1508C51.6693 52.2633 51.599 52.3805 51.524 52.5024C51.4865 52.5633 51.4537 52.6196 51.4256 52.6712C51.4021 52.718 51.381 52.7579 51.3623 52.7907C51.231 52.7157 51.088 52.6407 50.9333 52.5657C50.7833 52.4907 50.6403 52.4204 50.5044 52.3547C50.3684 52.2844 50.2489 52.2211 50.1458 52.1649C50.1692 52.1321 50.1973 52.0875 50.2302 52.0313C50.263 51.9703 50.2981 51.9024 50.3356 51.8273C50.4059 51.7148 50.4692 51.607 50.5255 51.5039C50.5864 51.3961 50.638 51.3093 50.6802 51.2437C50.8068 51.2906 50.9357 51.3445 51.0669 51.4054C51.2029 51.4664 51.3388 51.5344 51.4748 51.6094C51.6107 51.6844 51.749 51.7711 51.8897 51.8695ZM51.2005 53.8806C51.149 53.9791 51.0927 54.0799 51.0318 54.183C50.9755 54.2861 50.9193 54.3893 50.863 54.4924C50.8255 54.5627 50.7904 54.626 50.7575 54.6823C50.7294 54.7385 50.706 54.7807 50.6872 54.8088C50.556 54.7385 50.3825 54.6518 50.1669 54.5487C49.9512 54.4455 49.7496 54.3471 49.5621 54.2533C49.4074 54.1783 49.3113 54.1314 49.2738 54.1127C49.302 54.0658 49.3348 54.0049 49.3723 53.9299C49.4098 53.8502 49.4543 53.7658 49.5059 53.6767C49.5621 53.5689 49.6137 53.4705 49.6606 53.3814C49.7121 53.2876 49.752 53.215 49.7801 53.1634C49.9114 53.2197 50.0637 53.2853 50.2372 53.3603C50.4106 53.4353 50.5817 53.5197 50.7505 53.6134C50.924 53.7025 51.074 53.7916 51.2005 53.8806ZM53.4226 53.8595C53.3945 53.9064 53.3617 53.9697 53.3242 54.0494C53.2867 54.1244 53.2421 54.2065 53.1906 54.2955C53.1343 54.4033 53.0827 54.5041 53.0359 54.5979C52.989 54.687 52.9515 54.7573 52.9233 54.8088C52.7968 54.7432 52.6233 54.6565 52.403 54.5487C52.1827 54.4362 51.9764 54.333 51.7842 54.2393C51.7279 54.2111 51.674 54.1854 51.6225 54.1619C51.5756 54.1338 51.5334 54.1103 51.4959 54.0916C51.5428 54.0025 51.592 53.9111 51.6436 53.8174C51.6998 53.7189 51.7537 53.6205 51.8053 53.522C51.8522 53.4376 51.892 53.365 51.9248 53.304C51.9623 53.2431 51.9881 53.1962 52.0022 53.1634C52.1381 53.215 52.2905 53.2782 52.4592 53.3533C52.628 53.4236 52.7968 53.5033 52.9655 53.5923C53.139 53.6814 53.2913 53.7705 53.4226 53.8595ZM61.9882 61.25C61.4304 61.25 60.985 61.1539 60.6522 60.9617C60.3193 60.7695 60.0896 60.5304 59.963 60.2444L60.167 60.1812C60.0216 60.3781 59.8248 60.5562 59.5763 60.7156C59.3278 60.875 58.9927 61.0039 58.5707 61.1023C58.1488 61.2008 57.6308 61.25 57.0167 61.25H56.8761C56.8011 61.25 56.7448 61.2312 56.7073 61.1937C56.6651 61.1562 56.6346 61.093 56.6159 61.0039C56.5971 60.9148 56.5878 60.7836 56.5878 60.6101C56.5878 60.4367 56.5971 60.3054 56.6159 60.2163C56.6346 60.1273 56.6651 60.0663 56.7073 60.0335C56.7448 60.0007 56.8011 59.9843 56.8761 59.9843H57.08C57.605 59.9843 58.0551 59.9491 58.4301 59.8788C58.8051 59.8085 59.1005 59.7124 59.3161 59.5905C59.5318 59.4686 59.6701 59.3327 59.731 59.1826L59.6536 59.5905C59.6115 59.2248 59.5763 58.7795 59.5482 58.2544C59.5247 57.7247 59.513 57.1387 59.513 56.4965C59.5411 56.4918 59.5763 56.4848 59.6185 56.4754C59.6607 56.466 59.7052 56.4543 59.7521 56.4402C59.8037 56.4355 59.8505 56.4285 59.8927 56.4191C59.9396 56.4098 59.9795 56.4027 60.0123 56.398C60.0404 56.3887 60.0756 56.3793 60.1177 56.3699C60.1599 56.3605 60.2021 56.3535 60.2443 56.3488C60.2912 56.3394 60.3334 56.3301 60.3709 56.3207C60.4131 56.3113 60.4482 56.3043 60.4764 56.2996L60.5537 58.4162C60.5678 58.7912 60.624 59.0936 60.7225 59.3233C60.8209 59.5483 60.978 59.7147 61.1936 59.8225C61.4139 59.9304 61.7069 59.9843 62.0726 59.9843H62.2132V61.25H61.9882ZM58.416 63.9854C58.3645 64.0838 58.3082 64.1846 58.2473 64.2878C58.191 64.3956 58.1348 64.501 58.0785 64.6042C58.041 64.6745 58.0059 64.7354 57.973 64.787C57.9449 64.8433 57.9215 64.8855 57.9027 64.9136C57.7715 64.8433 57.598 64.7565 57.3824 64.6534C57.1667 64.5503 56.9651 64.4518 56.7776 64.3581C56.6229 64.2878 56.5268 64.2409 56.4893 64.2174C56.5175 64.1706 56.5503 64.1073 56.5878 64.0276C56.6253 63.9526 56.6698 63.8705 56.7214 63.7815C56.7776 63.6736 56.8292 63.5728 56.8761 63.4791C56.9276 63.39 56.9675 63.3197 56.9956 63.2681C57.1269 63.3244 57.2792 63.39 57.4527 63.465C57.6261 63.5447 57.7972 63.6291 57.966 63.7182C58.1395 63.8072 58.2895 63.8963 58.416 63.9854ZM60.6381 63.9643C60.61 64.0112 60.5772 64.0721 60.5397 64.1471C60.5022 64.2268 60.4576 64.3112 60.4061 64.4003C60.3498 64.5081 60.2982 64.6089 60.2514 64.7026C60.2045 64.7964 60.167 64.8667 60.1388 64.9136C60.0123 64.848 59.8388 64.7612 59.6185 64.6534C59.3982 64.5456 59.1919 64.4448 58.9997 64.351C58.9434 64.3182 58.8895 64.2878 58.838 64.2596C58.7911 64.2362 58.7489 64.2151 58.7114 64.1963C58.7583 64.1073 58.8075 64.0135 58.8591 63.9151C58.9153 63.8213 58.9692 63.7252 59.0208 63.6268C59.0677 63.5471 59.1075 63.4744 59.1403 63.4088C59.1778 63.3478 59.2036 63.301 59.2177 63.2681C59.3536 63.3197 59.506 63.3806 59.6747 63.451C59.8435 63.526 60.0123 63.608 60.181 63.6971C60.3545 63.7861 60.5068 63.8752 60.6381 63.9643ZM65.1534 59.2319C65.1534 59.4522 65.1346 59.6491 65.0971 59.8225C65.0643 59.9913 64.9963 60.153 64.8932 60.3077C64.7948 60.4624 64.6541 60.6007 64.4713 60.7226C64.1947 60.9101 63.8009 61.0461 63.2899 61.1305C62.7837 61.2102 62.1391 61.25 61.3562 61.25C61.2812 61.25 61.2249 61.2312 61.1874 61.1937C61.1452 61.1562 61.1148 61.093 61.096 61.0039C61.0773 60.9148 61.0679 60.7836 61.0679 60.6101C61.0679 60.4367 61.0773 60.3054 61.096 60.2163C61.1148 60.1273 61.1452 60.0663 61.1874 60.0335C61.2249 60.0007 61.2812 59.9843 61.3562 59.9843C62.0875 59.9843 62.6946 59.9655 63.1774 59.928C63.6603 59.8858 64.0634 59.7921 64.3869 59.6467L64.3166 59.8577C64.2557 59.492 64.1853 59.0678 64.1056 58.5849C64.0259 58.1021 63.9463 57.6216 63.8666 57.1434C63.754 56.473 63.6931 56.1097 63.6837 56.0535C63.7306 56.0347 63.7916 56.0136 63.8666 55.9902C63.9463 55.9668 64.0236 55.9433 64.0986 55.9199C64.1783 55.8917 64.2416 55.8707 64.2885 55.8566C64.3166 55.8472 64.3494 55.8378 64.3869 55.8285C64.4291 55.8144 64.4713 55.798 64.5135 55.7792C64.5651 55.7652 64.6119 55.7511 64.6541 55.737C64.6963 55.7183 64.7338 55.7042 64.7666 55.6949C64.8088 55.9574 64.8838 56.5387 64.9917 57.4387C65.0995 58.3341 65.1534 58.9318 65.1534 59.2319ZM63.7751 63.9573C63.733 64.0463 63.6767 64.1588 63.6064 64.2948C63.5408 64.4354 63.4704 64.5784 63.3954 64.7237C63.3673 64.7847 63.3415 64.8362 63.3181 64.8784C63.2946 64.9206 63.2782 64.9558 63.2689 64.9839C63.1235 64.9183 62.9571 64.8433 62.7696 64.7589C62.5868 64.6792 62.4039 64.5972 62.2211 64.5128C62.1274 64.4659 62.0383 64.4214 61.9539 64.3792C61.8742 64.3417 61.8039 64.3065 61.7429 64.2737C61.7851 64.194 61.839 64.0862 61.9047 63.9502C61.9703 63.8143 62.0336 63.6807 62.0945 63.5494C62.1602 63.4228 62.2117 63.322 62.2492 63.247C62.3852 63.2986 62.5422 63.3619 62.7204 63.4369C62.8985 63.5166 63.079 63.601 63.2618 63.69C63.4493 63.7791 63.6204 63.8682 63.7751 63.9573ZM76.0403 55.055C76.27 55.055 76.5115 55.0807 76.7646 55.1323C77.0225 55.1839 77.2756 55.2565 77.5241 55.3503C77.7725 55.4441 78.0069 55.5519 78.2272 55.6738C78.2038 55.7347 78.1757 55.8121 78.1429 55.9058C78.1147 55.9996 78.0866 56.098 78.0585 56.2011C78.0303 56.2949 78.0046 56.3769 77.9811 56.4473C77.9577 56.5176 77.9389 56.5762 77.9249 56.6231C77.8217 56.5856 77.7163 56.5504 77.6084 56.5176C77.5006 56.4848 77.3881 56.4543 77.2709 56.4262C77.0506 56.3746 76.8303 56.3348 76.6099 56.3066C76.3943 56.2738 76.1833 56.2574 75.9771 56.2574C75.5926 56.2574 75.2551 56.3676 74.9645 56.5879C74.6738 56.8082 74.4371 57.12 74.2543 57.5231C74.0761 57.9216 73.966 58.3927 73.9238 58.9365C73.9613 58.9459 74.0081 58.96 74.0644 58.9787C74.1253 58.9928 74.1886 59.0092 74.2543 59.0279C74.348 59.0514 74.4207 59.0725 74.4722 59.0912L76.5537 59.696C76.8068 59.7663 77.0107 59.8507 77.1654 59.9491C77.3248 60.0429 77.442 60.1624 77.517 60.3077C77.5967 60.4484 77.6366 60.6242 77.6366 60.8351C77.6366 61.6133 77.4631 62.3235 77.1162 62.9658C76.7693 63.6127 76.2325 64.1307 75.5059 64.5198C74.7793 64.9136 73.8722 65.1105 72.7846 65.1105C71.9267 65.1105 71.1978 64.9792 70.5977 64.7167C70.0023 64.4589 69.55 64.0791 69.2406 63.5775C68.9359 63.0806 68.7835 62.4782 68.7835 61.7704C68.7835 61.2828 68.8444 60.7601 68.9663 60.2023C69.0929 59.6444 69.3038 58.9529 69.5992 58.1279C69.6414 58.1513 69.6883 58.1794 69.7398 58.2122C69.7961 58.2451 69.8547 58.2802 69.9156 58.3177C70.0234 58.3787 70.082 58.4138 70.0914 58.4232C70.1149 58.4373 70.1453 58.456 70.1828 58.4795C70.225 58.5029 70.2696 58.5263 70.3164 58.5498C70.3633 58.5826 70.4055 58.6107 70.443 58.6342C70.4852 58.6576 70.518 58.6764 70.5415 58.6904C70.4524 58.9248 70.368 59.1545 70.2883 59.3795C70.2086 59.5999 70.1359 59.8085 70.0703 60.0054C69.9625 60.3429 69.8734 60.6429 69.8031 60.9054C69.7328 61.168 69.6859 61.3906 69.6625 61.5735C69.6906 62.0469 69.8219 62.4524 70.0563 62.79C70.2953 63.1275 70.6469 63.3877 71.111 63.5705C71.5798 63.7533 72.1635 63.8447 72.862 63.8447C73.8042 63.8447 74.5566 63.6877 75.1192 63.3736C75.6864 63.0595 76.0896 62.6868 76.3286 62.2556C76.5677 61.8243 76.692 61.4094 76.7013 61.0109L74.0996 60.2655C73.8323 60.1858 73.619 60.0874 73.4597 59.9702C73.3003 59.8483 73.1878 59.7124 73.1221 59.5624C73.0565 59.4077 73.0237 59.2366 73.0237 59.049C73.0237 58.2802 73.1526 57.5934 73.4104 56.9887C73.6683 56.3793 74.0246 55.9058 74.4793 55.5683C74.9387 55.2261 75.459 55.055 76.0403 55.055ZM82.3909 61.25C81.8753 61.25 81.4276 61.1844 81.0478 61.0531C80.6728 60.9218 80.3705 60.6945 80.1407 60.371C79.911 60.0429 79.7868 59.5952 79.7681 59.0279C79.7399 58.1654 79.7048 57.1012 79.6626 55.8355C79.6251 54.5698 79.5899 53.3673 79.5571 52.2282C79.5477 51.9141 79.5384 51.6539 79.529 51.4476C79.5243 51.2414 79.5219 51.0984 79.5219 51.0187C79.5501 51.0093 79.5852 50.9999 79.6274 50.9906C79.6743 50.9812 79.7235 50.9695 79.7751 50.9554C79.8642 50.9367 79.9485 50.9179 80.0282 50.8991C80.1079 50.8804 80.1736 50.8663 80.2251 50.857C80.2579 50.8476 80.2954 50.8382 80.3376 50.8288C80.3798 50.8195 80.422 50.8101 80.4642 50.8007C80.5158 50.7913 80.5627 50.782 80.6048 50.7726C80.647 50.7632 80.6822 50.7538 80.7103 50.7444V58.6131C80.7103 58.974 80.7783 59.2553 80.9142 59.4569C81.0502 59.6538 81.2424 59.7921 81.4909 59.8718C81.744 59.9468 82.0675 59.9843 82.4612 59.9843H82.5456V61.25H82.3909ZM90.612 58.9858C90.612 59.4077 90.5557 59.8038 90.4432 60.1741C90.3354 60.5445 90.1784 60.8398 89.9721 61.0601C89.7705 61.2805 89.5361 61.3906 89.2689 61.3906C88.7626 61.3906 88.2329 61.3531 87.6797 61.2781C87.1312 61.2078 86.6085 61.1141 86.1116 60.9969C85.6147 60.875 85.1904 60.7414 84.8388 60.596L84.6771 60.6664C84.2083 60.5023 83.8333 60.3218 83.552 60.1249C83.2708 59.9233 83.0692 59.7077 82.9473 59.478C82.8254 59.2483 82.7645 58.9951 82.7645 58.7185C82.7645 58.0951 82.884 57.5184 83.1231 56.9887C83.3669 56.4543 83.688 56.03 84.0864 55.716C84.4896 55.4019 84.9256 55.2448 85.3944 55.2448C85.7366 55.2448 86.0647 55.3573 86.3788 55.5823C86.6976 55.8074 86.9554 56.1496 87.1523 56.609C87.3539 57.0684 87.4547 57.6263 87.4547 58.2826C87.4547 58.5076 87.3844 58.756 87.2437 59.0279C87.1031 59.2998 86.8992 59.567 86.632 59.8296C86.3694 60.0874 86.0624 60.3171 85.7108 60.5187C85.4014 60.7531 84.9303 60.9336 84.2974 61.0601C83.6645 61.1867 82.9918 61.25 82.2793 61.25H81.6816C81.6066 61.25 81.5503 61.2336 81.5128 61.2008C81.4706 61.168 81.4401 61.107 81.4214 61.0179C81.4026 60.9289 81.3933 60.7929 81.3933 60.6101C81.3933 60.4273 81.4026 60.2913 81.4214 60.2023C81.4354 60.1132 81.4636 60.0546 81.5058 60.0265C81.5433 59.9983 81.6019 59.9843 81.6816 59.9843H82.3566C82.9426 59.9843 83.409 59.9772 83.7559 59.9632C84.1075 59.9444 84.4521 59.9046 84.7896 59.8436C85.0521 59.7405 85.31 59.6069 85.5631 59.4428C85.8163 59.2741 86.0319 59.1053 86.2101 58.9365C86.3929 58.7631 86.5195 58.6154 86.5898 58.4935C86.6038 58.0763 86.557 57.6942 86.4491 57.3473C86.3413 57.0004 86.1843 56.7262 85.978 56.5246C85.7764 56.3183 85.5444 56.2152 85.2819 56.2152C85.01 56.2152 84.7521 56.3113 84.5084 56.5035C84.2693 56.6957 84.0677 56.977 83.9036 57.3473C83.7442 57.713 83.6458 58.1419 83.6083 58.6342C83.6833 58.7748 83.8145 58.9178 84.0021 59.0631C84.1943 59.2084 84.4333 59.3491 84.7193 59.485C85.0053 59.621 85.324 59.7428 85.6756 59.8507L85.9217 59.7171C86.4093 59.8577 86.932 59.9772 87.4898 60.0757C88.0524 60.1694 88.5235 60.2163 88.9032 60.2163C89.1705 60.2163 89.358 60.2069 89.4658 60.1882C89.5314 60.0007 89.5806 59.8155 89.6135 59.6327C89.6463 59.4499 89.6627 59.2905 89.6627 59.1545C89.6627 58.606 89.4283 58.1161 88.9595 57.6849C88.4954 57.2489 87.7664 56.8739 86.7726 56.5598C85.7835 56.2457 84.5154 56.0019 82.9684 55.8285C82.9778 55.791 82.9848 55.7488 82.9895 55.7019C82.9989 55.655 83.0082 55.6034 83.0176 55.5472C83.027 55.5003 83.034 55.4605 83.0387 55.4276C83.0434 55.3901 83.0504 55.3597 83.0598 55.3362C83.0645 55.3034 83.0715 55.2636 83.0809 55.2167C83.0903 55.1698 83.0996 55.1206 83.109 55.069C83.1184 55.0128 83.1278 54.9612 83.1371 54.9143C83.1465 54.8628 83.1559 54.8182 83.1653 54.7807C84.9373 55.0104 86.3624 55.3034 87.4406 55.6597C88.5235 56.0113 89.3228 56.4566 89.8385 56.9957C90.3541 57.5349 90.612 58.1982 90.612 58.9858ZM93.2365 60.9195C93.2365 61.7774 93.0982 62.5321 92.8217 63.1838C92.5451 63.8354 92.1677 64.3393 91.6895 64.6956C91.2114 65.0519 90.6793 65.23 90.0933 65.23C89.9245 65.23 89.7394 65.2136 89.5378 65.1808C89.3409 65.1527 89.1417 65.1152 88.9401 65.0683C88.7432 65.0261 88.5393 64.9769 88.3283 64.9206C88.3565 64.7987 88.3869 64.6487 88.4197 64.4706C88.4432 64.3674 88.4643 64.269 88.483 64.1752C88.4971 64.0815 88.5088 64.0041 88.5182 63.9432C88.5838 63.9479 88.6494 63.9526 88.7151 63.9573C88.7807 63.9666 88.8463 63.9737 88.912 63.9783C89.3292 64.0018 89.6902 64.0135 89.9949 64.0135C90.4543 64.0135 90.8574 63.8705 91.2043 63.5846C91.5559 63.3033 91.8231 62.9353 92.006 62.4806C92.1935 62.0305 92.2872 61.5617 92.2872 61.0742C92.2497 60.8586 92.2005 60.596 92.1396 60.2866C92.0833 59.9726 92.0224 59.6327 91.9567 59.267C91.6848 57.7763 91.5466 57.0098 91.5419 56.9676C91.5841 56.9536 91.638 56.9325 91.7036 56.9043C91.7739 56.8715 91.8466 56.841 91.9216 56.8129C91.9778 56.7895 92.0271 56.7707 92.0693 56.7567C92.1161 56.7379 92.1513 56.7238 92.1747 56.7145C92.2169 56.7004 92.2638 56.684 92.3154 56.6652C92.3716 56.6418 92.4255 56.6184 92.4771 56.5949C92.5146 56.5809 92.5498 56.5668 92.5826 56.5527C92.6201 56.5387 92.6506 56.527 92.674 56.5176C92.6974 56.677 92.7209 56.8434 92.7443 57.0168C92.7724 57.1903 92.8029 57.3661 92.8357 57.5442C92.967 58.4162 93.0654 59.1123 93.1311 59.6327C93.2014 60.153 93.2365 60.582 93.2365 60.9195ZM92.9271 53.7681C92.8849 53.8572 92.8287 53.9721 92.7584 54.1127C92.6927 54.2486 92.6224 54.3893 92.5474 54.5346C92.5193 54.5955 92.4935 54.6471 92.4701 54.6893C92.4466 54.7315 92.4302 54.7667 92.4208 54.7948C92.2755 54.7292 92.1091 54.6565 91.9216 54.5768C91.7388 54.4924 91.5559 54.4057 91.3731 54.3166C91.2793 54.2744 91.1903 54.2346 91.1059 54.1971C91.0262 54.1549 90.9559 54.1174 90.8949 54.0846C90.9371 54.0002 90.991 53.8924 91.0567 53.7611C91.1223 53.6252 91.1856 53.4915 91.2465 53.3603C91.3122 53.229 91.3637 53.1282 91.4012 53.0579C91.5372 53.1095 91.6942 53.1728 91.8724 53.2478C92.0505 53.3228 92.231 53.4072 92.4138 53.5009C92.6013 53.59 92.7724 53.6791 92.9271 53.7681ZM97.3158 55.8214C97.8737 55.8214 98.3542 55.9972 98.7574 56.3488C99.1652 56.7004 99.4793 57.2208 99.6996 57.9099C99.9247 58.5943 100.037 59.4264 100.037 60.4062C100.037 61.4235 99.8848 62.2931 99.5801 63.015C99.2801 63.7416 98.8582 64.2924 98.3144 64.6675C97.7753 65.0425 97.1541 65.23 96.4509 65.23C96.2587 65.23 96.0431 65.2136 95.804 65.1808C95.5696 65.148 95.3352 65.1058 95.1008 65.0542C94.8664 65.0073 94.6531 64.9534 94.4609 64.8925C94.4703 64.8362 94.4844 64.7612 94.5031 64.6675C94.5219 64.5784 94.543 64.4823 94.5664 64.3792C94.5898 64.2854 94.6086 64.1987 94.6227 64.119C94.6367 64.044 94.6484 63.983 94.6578 63.9362C94.7234 63.9455 94.7938 63.9526 94.8688 63.9573C94.9485 63.9619 95.0305 63.969 95.1149 63.9783C95.293 63.9877 95.4876 63.9948 95.6985 63.9994C95.9095 64.0088 96.1298 64.0135 96.3595 64.0135C96.9267 64.0135 97.4119 63.8752 97.8151 63.5986C98.2229 63.3267 98.5347 62.9423 98.7503 62.4454C98.966 61.9485 99.0738 61.3719 99.0738 60.7156V60.5257C99.0738 59.7288 98.9965 59.0701 98.8418 58.5498C98.6917 58.0247 98.4808 57.6356 98.2089 57.3825C97.937 57.1293 97.6135 57.0028 97.2385 57.0028C96.84 57.0028 96.5189 57.1176 96.2751 57.3473C96.0314 57.577 95.8556 57.8958 95.7477 58.3037C95.6446 58.7068 95.6024 59.1826 95.6212 59.7311C95.7243 59.7827 95.8556 59.8296 96.015 59.8718C96.1743 59.9093 96.3619 59.9397 96.5775 59.9632C96.7978 59.9866 97.0369 59.9983 97.2947 59.9983C97.6838 59.9983 98.0659 59.9796 98.4409 59.9421C98.8207 59.9046 99.1277 59.853 99.3621 59.7874V60.8984C99.1512 61.0062 98.8441 61.093 98.4409 61.1586C98.0378 61.2195 97.6159 61.25 97.1752 61.25C96.608 61.25 96.1415 61.1937 95.7759 61.0812C95.4102 60.964 95.136 60.7789 94.9531 60.5257C94.7703 60.2679 94.6789 59.928 94.6789 59.5061C94.6789 58.756 94.7891 58.1044 95.0094 57.5513C95.2297 56.9934 95.5391 56.5668 95.9376 56.2715C96.3361 55.9714 96.7955 55.8214 97.3158 55.8214ZM103.188 56.5176C103.212 56.677 103.235 56.8434 103.259 57.0168C103.287 57.1903 103.317 57.3661 103.35 57.5442C103.481 58.4162 103.58 59.1123 103.645 59.6327C103.716 60.153 103.751 60.582 103.751 60.9195C103.751 61.7774 103.613 62.5321 103.336 63.1838C103.059 63.8354 102.682 64.3393 102.204 64.6956C101.726 65.0519 101.194 65.23 100.608 65.23C100.458 65.23 100.308 65.216 100.158 65.1878C100.012 65.1597 99.8692 65.1222 99.7286 65.0753C99.5927 65.0331 99.4544 64.9816 99.3137 64.9206C99.3278 64.8503 99.3442 64.7612 99.363 64.6534C99.3864 64.5456 99.4098 64.4354 99.4333 64.3229C99.452 64.2432 99.4684 64.1706 99.4825 64.1049C99.4966 64.0393 99.5059 63.9854 99.5106 63.9432C99.5622 63.9526 99.6184 63.9619 99.6794 63.9713C99.7403 63.9807 99.806 63.9877 99.8763 63.9924C99.97 64.0018 100.068 64.0065 100.172 64.0065C100.279 64.0112 100.392 64.0135 100.509 64.0135C100.969 64.0135 101.372 63.8705 101.719 63.5846C102.07 63.3033 102.337 62.9353 102.52 62.4806C102.708 62.0305 102.802 61.5617 102.802 61.0742C102.764 60.8586 102.715 60.596 102.654 60.2866C102.598 59.9726 102.537 59.6327 102.471 59.267C102.199 57.7763 102.061 57.0098 102.056 56.9676C102.098 56.9536 102.152 56.9325 102.218 56.9043C102.288 56.8715 102.361 56.841 102.436 56.8129C102.492 56.7895 102.541 56.7707 102.584 56.7567C102.63 56.7379 102.666 56.7238 102.689 56.7145C102.731 56.7004 102.778 56.684 102.83 56.6652C102.886 56.6418 102.94 56.6184 102.991 56.5949C103.029 56.5809 103.064 56.5668 103.097 56.5527C103.134 56.5387 103.165 56.527 103.188 56.5176Z" fill="#212121"/>
<path fill-rule="evenodd" clip-rule="evenodd" d="M130.733 38.4302L130.736 38.4295C131.623 38.2066 132.46 37.8655 133.277 37.4425C133.317 37.5349 133.355 37.6253 133.392 37.7139L133.394 37.7183C133.67 38.3684 133.946 39.0188 134.222 39.6693L134.225 39.6743C134.895 41.2549 135.566 42.8353 136.246 44.4104L136.247 44.4117C136.61 45.2455 137.302 45.7481 138.066 45.8383C138.829 45.9286 139.617 45.6007 140.158 44.8747C141.042 43.6895 142.066 42.6321 143.205 41.6842L143.206 41.6832C147.379 38.1808 152.193 36.3747 157.634 36.1695C159.667 36.0949 161.682 36.2532 163.691 36.6081C163.927 36.6544 164.172 36.6522 164.386 36.6425L164.391 36.6423L164.396 36.642C165.386 36.5724 166.231 35.7615 166.37 34.7943L166.371 34.7891C166.505 33.7538 165.958 32.735 164.968 32.3948L164.964 32.3935C164.761 32.3263 164.533 32.2839 164.342 32.2484C164.29 32.2388 164.241 32.2297 164.196 32.2207L164.192 32.2199L164.189 32.2192C163.109 32.0273 162.022 31.9029 160.927 31.8264C158.073 31.616 155.241 31.7591 152.435 32.3736C147.273 33.4946 142.788 35.8876 138.987 39.5394C138.544 38.5188 138.11 37.4979 137.675 36.4756L137.675 36.4752L137.674 36.4744C137.503 36.0749 137.333 35.6723 137.162 35.2686L137.162 35.2683C136.87 34.5782 136.576 33.8848 136.276 33.1977L136.276 33.1971C136.066 32.7199 135.743 32.3455 135.328 32.11C134.912 31.8747 134.427 31.7911 133.914 31.8567C133.327 31.9286 132.911 32.2529 132.57 32.5541L132.569 32.5547C130.755 34.1623 128.678 34.7364 126.339 34.1185C121.743 32.9006 119.904 27.4526 122.824 23.7225C124.034 22.1768 125.606 21.3167 127.581 21.2273L127.582 21.2273C128.527 21.1825 129.346 20.586 129.626 19.6975C129.79 19.203 129.736 18.7244 129.623 18.2849C129.274 16.9234 129.2 15.5441 129.393 14.1538L129.394 14.1523C130.101 8.90564 134.354 5.43062 138.58 4.89171C139.788 4.7438 140.955 4.73618 142.106 4.94527C144.597 5.40302 146.679 6.58035 148.362 8.47538L148.364 8.4768L148.365 8.47862C148.486 8.61756 148.617 8.76807 148.76 8.91011L148.762 8.91176C149.692 9.82639 151.217 9.73488 152.033 8.70771C152.69 7.89108 152.669 6.7778 152.015 5.94673L152.012 5.9428C151.829 5.71673 151.633 5.49293 151.445 5.27888C153.164 4.48032 154.965 4.22431 156.82 4.5666C161.629 5.45696 164.604 9.84955 164.022 14.2695C163.575 17.6441 161.743 20.0042 158.609 21.3819L158.606 21.3832C157.59 21.8395 156.502 22.023 155.365 22.0598L155.364 22.0599C154.752 22.0816 154.188 22.2824 153.753 22.7741L153.751 22.7764C153.173 23.4408 152.988 24.2452 153.345 25.0932L153.346 25.0939C153.521 25.509 153.78 25.8478 154.124 26.0843C154.469 26.321 154.878 26.4402 155.33 26.4512L155.332 26.4512C156.409 26.4709 157.47 26.3134 158.491 26.0618L158.492 26.0614C165.787 24.2312 170.188 16.6737 167.954 9.50349C167.118 6.81813 165.75 4.68284 163.877 3.11116C162.006 1.54011 159.649 0.549067 156.861 0.119387L156.858 0.119071C155.47 -0.0868344 154.066 -0.0176472 152.706 0.264517C150.938 0.616691 149.244 1.21849 147.77 2.37175L147.583 2.27149L147.582 2.27077C144.331 0.497633 140.868 -0.0458157 137.228 0.632383L137.227 0.632608C135.593 0.942441 134.019 1.49591 132.586 2.36499C127.629 5.34537 125.041 9.73994 124.875 15.5093C124.857 16.05 124.855 16.623 124.944 17.1958C124.892 17.2093 124.845 17.224 124.818 17.2324L124.818 17.2324L124.798 17.2385L124.794 17.2399L124.789 17.2413C119.034 19.0433 115.892 24.9042 117.359 30.5395C118.531 35.0887 122.567 38.4686 127.399 38.7336C128.532 38.8021 129.643 38.6941 130.733 38.4302ZM129.043 38.3296C128.507 38.379 127.966 38.3883 127.421 38.3553C122.754 38.0998 118.857 34.8351 117.725 30.4442C116.309 25.003 119.341 19.3442 124.902 17.603C124.919 17.5981 124.937 17.5927 124.955 17.587C125.008 17.5707 125.064 17.5532 125.121 17.5462C125.32 17.5084 125.368 17.3853 125.33 17.2055C125.235 16.6472 125.235 16.0794 125.254 15.5211C125.415 9.88119 127.934 5.60393 132.782 2.68933C134.17 1.84713 135.7 1.30774 137.297 1.00492C137.809 0.909669 138.316 0.83907 138.82 0.793155C138.318 0.839081 137.812 0.909522 137.303 1.00445C135.706 1.30727 134.175 1.84666 132.787 2.68886C127.94 5.60346 125.421 9.88072 125.259 15.5207C125.24 16.079 125.24 16.6467 125.335 17.2051C125.373 17.3849 125.325 17.5079 125.126 17.5457C125.069 17.5528 125.013 17.5703 124.96 17.5866C124.942 17.5922 124.924 17.5977 124.907 17.6025C119.346 19.3437 116.314 25.0026 117.731 30.4438C118.862 34.8346 122.759 38.0993 127.426 38.3548C127.97 38.3877 128.509 38.3786 129.043 38.3296ZM147.806 2.78318C147.852 2.77965 147.898 2.75838 147.949 2.71725C149.375 1.58169 151.029 0.985526 152.787 0.635396C153.246 0.540092 153.709 0.469897 154.175 0.427188C153.708 0.469851 153.243 0.540212 152.782 0.635868C151.023 0.985998 149.37 1.58217 147.944 2.71772C147.895 2.75731 147.851 2.7785 147.806 2.78318ZM156.455 26.0299C156.087 26.0635 155.716 26.0787 155.344 26.0719C154.565 26.0529 154.004 25.665 153.7 24.9458C153.405 24.2455 153.548 23.5926 154.042 23.0248C154.36 22.6648 154.765 22.4912 155.234 22.4475C154.763 22.4904 154.356 22.664 154.037 23.0253C153.542 23.593 153.4 24.246 153.695 24.9462C153.999 25.6654 154.56 26.0534 155.339 26.0723C155.713 26.0792 156.085 26.0638 156.455 26.0299ZM156.095 22.3947C157.015 22.3106 157.912 22.1124 158.766 21.7284C162.017 20.2995 163.937 17.8296 164.403 14.3189C165.011 9.70093 161.903 5.12085 156.894 4.19347C156.055 4.03874 155.227 4.0014 154.413 4.07619C155.225 4.00203 156.052 4.03953 156.888 4.19395C161.898 5.12132 165.006 9.7014 164.398 14.3193C163.932 17.8301 162.012 20.2999 158.761 21.7288C157.908 22.1121 157.013 22.3104 156.095 22.3947ZM150.474 9.15524C149.961 9.2015 149.431 9.03273 149.032 8.64107C148.899 8.50859 148.776 8.36665 148.652 8.2247C146.913 6.26587 144.755 5.04514 142.179 4.57199C141.137 4.38267 140.088 4.36519 139.019 4.46349C140.086 4.36572 141.134 4.38345 142.174 4.57247C144.75 5.04561 146.908 6.26634 148.647 8.22517C148.771 8.36712 148.894 8.50906 149.027 8.64155C149.427 9.03452 149.96 9.2031 150.474 9.15524ZM133.458 36.9188C133.512 37.0363 133.564 37.1513 133.613 37.2638C133.658 37.368 133.701 37.47 133.742 37.5699C134.02 38.2224 134.297 38.8749 134.574 39.5272C135.244 41.1074 135.914 42.6861 136.594 44.2602C136.969 45.1194 137.727 45.5363 138.475 45.4664C137.728 45.5339 136.973 45.117 136.599 44.2597C135.92 42.6857 135.25 41.1069 134.579 39.5267C134.302 38.8744 134.025 38.2219 133.747 37.5694C133.662 37.3612 133.567 37.1436 133.462 36.9164C133.461 36.9172 133.459 36.918 133.458 36.9188ZM156.158 35.8854C156.64 35.8409 157.128 35.8094 157.62 35.7908C159.683 35.7151 161.727 35.876 163.761 36.2356C163.951 36.2734 164.16 36.2734 164.369 36.264C164.381 36.2631 164.393 36.2622 164.405 36.2611C164.395 36.262 164.385 36.2628 164.375 36.2635C164.165 36.273 163.956 36.273 163.766 36.2351C161.732 35.8755 159.688 35.7146 157.626 35.7903C157.131 35.809 156.642 35.8407 156.158 35.8854ZM155.824 32.2346C154.717 32.3359 153.614 32.5033 152.516 32.7437C147.373 33.8604 142.915 36.2545 139.141 39.9167C139.118 39.9372 139.097 39.9619 139.076 39.9869C139.025 40.0459 138.974 40.1061 138.891 40.1148C138.977 40.1081 139.03 40.0466 139.081 39.9864C139.102 39.9615 139.123 39.9367 139.147 39.9162C142.92 36.254 147.378 33.8599 152.521 32.7433C153.618 32.5032 154.719 32.336 155.824 32.2346ZM134.051 32.2229C134.023 32.2255 133.995 32.2286 133.966 32.2323C133.5 32.289 133.158 32.5445 132.825 32.8379C131.588 33.9342 130.222 34.5776 128.737 34.7131C130.22 34.5766 131.584 33.9334 132.82 32.8384C133.153 32.545 133.495 32.2895 133.961 32.2327C133.991 32.2289 134.021 32.2256 134.051 32.2229ZM127.215 20.8725C127.33 20.862 127.446 20.8541 127.564 20.8488C127.594 20.8473 127.624 20.8452 127.655 20.8424C127.626 20.845 127.598 20.8469 127.569 20.8483C127.45 20.8537 127.332 20.8618 127.215 20.8725Z" fill="#FF9800"/>
<path fill-rule="evenodd" clip-rule="evenodd" d="M176.09 53.1446C175.805 58.1004 173.975 62.3782 170.561 65.959C167.821 68.8236 164.502 70.6856 160.632 71.5546C159.931 71.7073 159.229 71.8315 158.508 71.8983C158.452 71.8983 158.397 71.8961 158.341 71.8938H158.341C158.141 71.8857 157.942 71.8776 157.75 71.9747C156.811 72.0034 155.881 72.0129 154.943 71.9747C154.779 71.8777 154.605 71.8857 154.428 71.8938C154.378 71.896 154.328 71.8983 154.279 71.8983C154.184 71.8919 154.092 71.8856 154.004 71.8792C153.861 71.7742 153.691 71.7933 153.52 71.8124C147.128 70.7716 142.377 67.334 139.068 61.748C138.965 61.8202 138.868 61.8924 138.773 61.9636L138.773 61.9636C138.666 62.0431 138.561 62.1213 138.451 62.1968C138.119 62.4164 137.778 62.3687 137.579 62.0918C137.37 61.8053 137.427 61.4711 137.759 61.2228C138.423 60.7199 139.093 60.2266 139.77 59.7428C140.101 59.5041 140.433 59.5518 140.642 59.8383C140.841 60.1152 140.775 60.4685 140.471 60.7168C140.433 60.7451 140.394 60.7722 140.356 60.7989C140.291 60.8441 140.227 60.8884 140.168 60.9364C140.082 61.0032 139.997 61.0701 139.893 61.156C140.452 62.1013 141.107 62.9703 141.837 63.7724C144.227 66.3983 147.119 68.1934 150.59 68.9955C150.671 69.0136 150.751 69.0375 150.831 69.0614C151.004 69.1129 151.176 69.1644 151.358 69.1578C151.481 69.2438 151.604 69.2629 151.747 69.2247C151.804 69.231 151.864 69.2374 151.927 69.2438C152.107 69.3488 152.297 69.3584 152.496 69.3202C152.616 69.3329 152.739 69.3424 152.866 69.3488C152.96 69.4269 153.071 69.4261 153.19 69.4254L153.226 69.4252C153.801 69.4316 154.377 69.4316 154.952 69.4252L154.988 69.4254C155.107 69.4261 155.218 69.4269 155.312 69.3488C160.955 68.8236 165.327 66.1691 168.39 61.3756C170.116 58.6733 170.922 55.675 170.931 52.4571C170.931 51.9327 170.93 51.4082 170.929 50.8834V50.8823V50.8805C170.927 49.8297 170.925 48.7774 170.931 47.721C170.941 46.7088 171.377 45.9163 172.259 45.4388C174.193 44.3885 176.128 45.9163 176.109 47.6637C176.095 48.9885 176.096 50.3133 176.098 51.6382C176.099 52.0799 176.099 52.5215 176.099 52.9632C176.03 53.0205 176.027 53.081 176.09 53.1446ZM151.047 51.3281C150.571 51.9247 149.978 52.2941 149.133 52.2941C148.441 52.3035 147.839 51.9437 147.354 51.347C146.267 50.0023 146.276 47.7484 147.363 46.4131C148.387 45.1535 150.032 45.163 151.038 46.4225C152.108 47.7673 152.126 49.9739 151.047 51.3281ZM149.672 48.7522C149.681 48.184 149.34 47.72 148.882 47.6631C148.351 47.6063 147.911 48.0041 147.857 48.5912C147.803 49.2257 148.181 49.7655 148.711 49.8034C149.223 49.8507 149.663 49.3583 149.672 48.7522ZM159.02 48.8424C158.932 48.8164 158.854 48.7931 158.801 48.7034C158.811 48.6986 158.82 48.6889 158.83 48.6792C158.839 48.6695 158.849 48.6598 158.859 48.655C159.828 48.2772 160.826 48.0641 161.871 48.0641C162.437 48.0641 162.85 47.667 162.84 47.1536C162.831 46.5724 162.351 46.2043 161.843 46.2334C161.716 46.2417 161.59 46.2484 161.464 46.2551C161.149 46.2719 160.834 46.2887 160.518 46.3302C158.811 46.5724 157.295 47.2214 155.99 48.3741C155.644 48.6743 155.318 49.0037 155.068 49.3911C154.8 49.798 154.829 50.2048 155.116 50.5438C155.395 50.8732 155.817 50.97 156.239 50.7666C157.323 50.2339 158.36 50.3792 159.357 50.97C159.468 51.0379 159.571 51.1129 159.674 51.188C159.777 51.2631 159.88 51.3381 159.991 51.4059C160.48 51.6965 161.094 51.4834 161.296 50.97C161.449 50.5826 161.344 50.1758 160.989 49.8948C160.403 49.4202 159.76 49.0521 159.041 48.8487C159.034 48.8466 159.027 48.8445 159.02 48.8424Z" fill="#298432"/>
</svg>
