<svg width="24" height="25" viewBox="0 0 24 25" fill="none" xmlns="http://www.w3.org/2000/svg">
<path d="M17 18.9301H13L8.54999 21.89C7.88999 22.33 7 21.8601 7 21.0601V18.9301C4 18.9301 2 16.9301 2 13.9301V7.92999C2 4.92999 4 2.92999 7 2.92999H17C20 2.92999 22 4.92999 22 7.92999V13.9301C22 16.9301 20 18.9301 17 18.9301Z" stroke="#212121" stroke-width="1.5" stroke-miterlimit="10" stroke-linecap="round" stroke-linejoin="round"/>
<path d="M12.0001 11.86V11.65C12.0001 10.97 12.4201 10.61 12.8401 10.32C13.2501 10.04 13.66 9.68002 13.66 9.02002C13.66 8.10002 12.9201 7.35999 12.0001 7.35999C11.0801 7.35999 10.3401 8.10002 10.3401 9.02002" stroke="#212121" stroke-width="1.5" stroke-linecap="round" stroke-linejoin="round"/>
<path d="M11.9955 14.25H12.0045" stroke="#212121" stroke-width="1.5" stroke-linecap="round" stroke-linejoin="round"/>
</svg>
